<svg width="1200" height="253" viewBox="0 0 1200 253" fill="none" xmlns="http://www.w3.org/2000/svg">
<mask id="path-1-outside-1_99_5303" maskUnits="userSpaceOnUse" x="-24" y="-1" width="1237" height="262" fill="black">
<rect fill="white" x="-24" y="-1" width="1237" height="262"/>
<path d="M2.06405 115.84C-3.69595 102.52 -10.5359 96.76 -22.4159 96.04V91H50.6641V96.04C38.0641 96.4 32.3041 100 32.3041 107.56C32.3041 110.08 33.0241 113.32 34.4641 117.28L74.0641 217L114.024 118.72C115.824 114.76 116.544 111.16 116.544 108.28C116.544 100.36 110.064 96.76 96.0241 96.04V91H148.584V96.04C137.424 97.12 129.864 103.96 123.384 119.44L65.7841 258.04H60.7441L2.06405 115.84ZM197.648 258.4C169.568 258.4 150.128 240.76 150.128 215.2C150.128 149.68 249.128 178.12 249.128 130.24C249.128 109 235.088 94.6 214.568 94.6C193.328 94.6 180.728 110.44 180.728 130.24C180.728 134.56 181.448 139.6 182.888 144.28H150.128C150.848 111.52 176.048 85.6 216.728 85.6C254.888 85.6 278.288 107.92 278.288 142.12V222.76C278.288 234.28 282.968 239.68 295.208 240.76L300.248 241.12V246.16L249.848 258.76V215.56C240.848 245.08 222.488 258.4 197.648 258.4ZM181.088 210.88C181.088 228.16 193.328 241.12 210.248 241.12C228.968 241.12 249.128 224.2 249.128 194.68V151.48C236.168 177.4 181.088 164.08 181.088 210.88ZM360.211 134.56C368.131 104.32 386.851 85.6 406.291 85.6C411.331 85.6 416.731 87.04 421.771 89.56L418.891 117.64C412.771 113.68 405.931 111.52 399.091 111.52C379.651 111.52 360.571 128.44 360.211 165.88V228.88C360.211 241.12 369.571 246.52 391.531 247.96V253H309.811V247.96C325.291 245.8 331.411 240.4 331.411 228.88V121.96C331.411 110.44 326.371 104.68 314.131 103.6L309.091 103.24V98.2L360.211 85.6V134.56ZM527.695 234.28C521.215 247.96 507.175 257.68 490.615 257.68C463.975 257.68 449.575 240.76 449.575 209.08V100H428.335V94.96C443.815 80.92 458.215 67.24 473.695 43.48H478.735V91H525.175V100H478.735V210.52C478.735 231.04 487.735 241.84 505.375 241.84C512.935 241.84 519.415 238.24 523.735 232.12L527.695 234.28ZM693.458 228.88C693.458 240.4 699.578 245.8 715.058 247.96V253H642.698V247.96C658.538 245.8 664.298 240.4 664.298 228.88V142.84C664.298 116.2 650.618 105.4 632.258 105.4C611.378 105.4 589.418 120.16 589.418 156.52V228.88C589.418 240.4 595.178 245.8 611.018 247.96V253H538.658V247.96C554.498 245.8 560.258 240.4 560.258 228.88V38.44C560.258 26.92 555.578 21.52 543.338 20.44L538.298 20.08V15.04L589.418 2.07999V128.08C599.138 100.72 619.298 85.6 645.218 85.6C674.378 85.6 693.458 104.32 693.458 140.32V228.88ZM779.161 258.4C751.081 258.4 731.641 240.76 731.641 215.2C731.641 149.68 830.641 178.12 830.641 130.24C830.641 109 816.601 94.6 796.081 94.6C774.841 94.6 762.241 110.44 762.241 130.24C762.241 134.56 762.961 139.6 764.401 144.28H731.641C732.361 111.52 757.561 85.6 798.241 85.6C836.401 85.6 859.801 107.92 859.801 142.12V222.76C859.801 234.28 864.481 239.68 876.721 240.76L881.761 241.12V246.16L831.361 258.76V215.56C822.361 245.08 804.001 258.4 779.161 258.4ZM762.601 210.88C762.601 228.16 774.841 241.12 791.761 241.12C810.481 241.12 830.641 224.2 830.641 194.68V151.48C817.681 177.4 762.601 164.08 762.601 210.88ZM925.163 258.4C911.483 258.4 901.763 248.68 901.763 235.36C901.763 222.4 911.483 213.04 925.163 213.04C938.483 213.04 948.563 222.4 948.563 235.36C948.563 248.68 938.483 258.4 925.163 258.4ZM1027.03 258.4C998.946 258.4 979.506 240.76 979.506 215.2C979.506 149.68 1078.51 178.12 1078.51 130.24C1078.51 109 1064.47 94.6 1043.95 94.6C1022.71 94.6 1010.11 110.44 1010.11 130.24C1010.11 134.56 1010.83 139.6 1012.27 144.28H979.506C980.226 111.52 1005.43 85.6 1046.11 85.6C1084.27 85.6 1107.67 107.92 1107.67 142.12V222.76C1107.67 234.28 1112.35 239.68 1124.59 240.76L1129.63 241.12V246.16L1079.23 258.76V215.56C1070.23 245.08 1051.87 258.4 1027.03 258.4ZM1010.47 210.88C1010.47 228.16 1022.71 241.12 1039.63 241.12C1058.35 241.12 1078.51 224.2 1078.51 194.68V151.48C1065.55 177.4 1010.47 164.08 1010.47 210.88ZM1189.59 228.88C1189.59 240.4 1195.71 245.8 1211.19 247.96V253H1139.19V247.96C1154.67 245.8 1160.79 240.4 1160.79 228.88V121.96C1160.79 110.44 1155.75 104.68 1143.51 103.6L1138.47 103.24V98.2L1189.59 85.6V228.88ZM1152.51 22.24C1152.51 10 1162.23 0.639987 1175.19 0.639987C1187.79 0.639987 1197.15 10 1197.15 22.24C1197.15 34.48 1187.79 43.84 1175.19 43.84C1162.23 43.84 1152.51 34.48 1152.51 22.24Z"/>
</mask>
<path d="M2.06405 115.84L2.98844 115.459L2.98524 115.451L2.98191 115.443L2.06405 115.84ZM-22.4159 96.04H-23.4159V96.9812L-22.4764 97.0382L-22.4159 96.04ZM-22.4159 91V90H-23.4159V91H-22.4159ZM50.6641 91H51.6641V90H50.6641V91ZM50.6641 96.04L50.6926 97.0396L51.6641 97.0118V96.04H50.6641ZM34.4641 117.28L33.5243 117.622L33.5293 117.635L33.5347 117.649L34.4641 117.28ZM74.0641 217L73.1347 217.369L74.0531 219.682L74.9904 217.377L74.0641 217ZM114.024 118.72L113.114 118.306L113.105 118.325L113.098 118.343L114.024 118.72ZM96.0241 96.04H95.0241V96.99L95.9728 97.0387L96.0241 96.04ZM96.0241 91V90H95.0241V91H96.0241ZM148.584 91H149.584V90H148.584V91ZM148.584 96.04L148.68 97.0353L149.584 96.9479V96.04H148.584ZM123.384 119.44L122.462 119.054L122.461 119.056L123.384 119.44ZM65.7841 258.04V259.04H66.4514L66.7075 258.424L65.7841 258.04ZM60.744 258.04L59.8197 258.421L60.0749 259.04H60.744V258.04ZM2.98191 115.443C0.0705776 108.711 -3.1591 103.778 -7.24868 100.44C-11.3597 97.0853 -16.254 95.4116 -22.3555 95.0418L-22.4764 97.0382C-16.6979 97.3884 -12.2322 98.9547 -8.51322 101.99C-4.7728 105.042 -1.70247 109.649 1.14619 116.237L2.98191 115.443ZM-21.4159 96.04V91H-23.4159V96.04H-21.4159ZM-22.4159 92H50.6641V90H-22.4159V92ZM49.6641 91V96.04H51.6641V91H49.6641ZM50.6355 95.0404C44.2817 95.2219 39.4726 96.2187 36.2279 98.2527C32.8924 100.344 31.3041 103.471 31.3041 107.56H33.3041C33.3041 104.089 34.5957 101.636 37.2902 99.9473C40.0755 98.2012 44.4465 97.218 50.6926 97.0396L50.6355 95.0404ZM31.3041 107.56C31.3041 110.249 32.0675 113.616 33.5243 117.622L35.4038 116.938C33.9806 113.024 33.3041 109.911 33.3041 107.56H31.3041ZM33.5347 117.649L73.1347 217.369L74.9935 216.631L35.3935 116.911L33.5347 117.649ZM74.9904 217.377L114.95 119.097L113.098 118.343L73.1377 216.623L74.9904 217.377ZM114.934 119.134C116.786 115.061 117.544 111.321 117.544 108.28H115.544C115.544 110.999 114.862 114.459 113.114 118.306L114.934 119.134ZM117.544 108.28C117.544 106.161 117.109 104.275 116.183 102.635C115.255 100.995 113.869 99.6613 112.055 98.5975C108.465 96.4915 103.135 95.4033 96.0753 95.0413L95.9728 97.0387C102.953 97.3967 107.883 98.4685 111.043 100.323C112.605 101.239 113.715 102.335 114.442 103.62C115.169 104.905 115.544 106.439 115.544 108.28H117.544ZM97.0241 96.04V91H95.0241V96.04H97.0241ZM96.0241 92H148.584V90H96.0241V92ZM147.584 91V96.04H149.584V91H147.584ZM148.488 95.0446C142.706 95.6042 137.817 97.6672 133.551 101.605C129.309 105.521 125.73 111.246 122.462 119.054L124.307 119.826C127.518 112.154 130.96 106.719 134.907 103.075C138.831 99.4528 143.302 97.5558 148.68 97.0353L148.488 95.0446ZM122.461 119.056L64.8606 257.656L66.7075 258.424L124.307 119.824L122.461 119.056ZM65.7841 257.04H60.744V259.04H65.7841V257.04ZM61.6684 257.659L2.98844 115.459L1.13966 116.221L59.8197 258.421L61.6684 257.659ZM182.888 144.28V145.28H184.242L183.844 143.986L182.888 144.28ZM150.128 144.28L149.128 144.258L149.106 145.28H150.128V144.28ZM295.208 240.76L295.12 241.756L295.129 241.757L295.137 241.757L295.208 240.76ZM300.248 241.12H301.248V240.189L300.319 240.123L300.248 241.12ZM300.248 246.16L300.491 247.13L301.248 246.941V246.16H300.248ZM249.848 258.76H248.848V260.041L250.091 259.73L249.848 258.76ZM249.848 215.56H250.848L248.892 215.268L249.848 215.56ZM249.128 151.48H250.128L248.234 151.033L249.128 151.48ZM197.648 257.4C183.817 257.4 172.189 253.058 164.031 245.645C155.88 238.239 151.128 227.713 151.128 215.2H149.128C149.128 228.247 154.097 239.321 162.686 247.125C171.267 254.922 183.399 259.4 197.648 259.4V257.4ZM151.128 215.2C151.128 199.125 157.176 188.908 166.215 181.803C175.324 174.643 187.52 170.601 199.903 167.067C212.198 163.557 224.731 160.538 234.14 155.377C238.869 152.784 242.875 149.618 245.698 145.517C248.529 141.404 250.128 136.41 250.128 130.24H248.128C248.128 136.04 246.633 140.631 244.051 144.383C241.459 148.148 237.731 151.127 233.178 153.624C224.025 158.645 211.809 161.588 199.354 165.143C186.986 168.674 174.432 172.8 164.979 180.231C155.455 187.717 149.128 198.515 149.128 215.2H151.128ZM250.128 130.24C250.128 119.396 246.541 110.224 240.26 103.758C233.978 97.2899 225.07 93.6 214.568 93.6V95.6C224.586 95.6 232.958 99.1101 238.826 105.152C244.696 111.196 248.128 119.844 248.128 130.24H250.128ZM214.568 93.6C203.683 93.6 194.947 97.6673 188.941 104.325C182.945 110.971 179.728 120.132 179.728 130.24H181.728C181.728 120.548 184.811 111.889 190.426 105.665C196.03 99.4527 204.214 95.6 214.568 95.6V93.6ZM179.728 130.24C179.728 134.66 180.463 139.8 181.932 144.574L183.844 143.986C182.433 139.4 181.728 134.46 181.728 130.24H179.728ZM182.888 143.28H150.128V145.28H182.888V143.28ZM151.128 144.302C151.482 128.18 157.855 113.772 169.121 103.39C180.387 93.0078 196.604 86.6 216.728 86.6V84.6C196.172 84.6 179.449 91.1522 167.765 101.92C156.081 112.688 149.494 127.62 149.128 144.258L151.128 144.302ZM216.728 86.6C235.615 86.6 250.742 92.1212 261.138 101.768C271.526 111.408 277.288 125.257 277.288 142.12H279.288C279.288 124.783 273.35 110.372 262.498 100.302C251.654 90.2387 236.001 84.6 216.728 84.6V86.6ZM277.288 142.12V222.76H279.288V142.12H277.288ZM277.288 222.76C277.288 228.633 278.478 233.162 281.423 236.353C284.366 239.542 288.889 241.206 295.12 241.756L295.296 239.764C289.287 239.234 285.35 237.658 282.893 234.997C280.438 232.337 279.288 228.406 279.288 222.76H277.288ZM295.137 241.757L300.177 242.117L300.319 240.123L295.279 239.763L295.137 241.757ZM299.248 241.12V246.16H301.248V241.12H299.248ZM300.006 245.19L249.606 257.79L250.091 259.73L300.491 247.13L300.006 245.19ZM250.848 258.76V215.56H248.848V258.76H250.848ZM248.892 215.268C244.434 229.89 237.687 240.405 229.065 247.268C220.451 254.124 209.882 257.4 197.648 257.4V259.4C210.255 259.4 221.285 256.016 230.311 248.832C239.329 241.655 246.262 230.75 250.805 215.852L248.892 215.268ZM180.088 210.88C180.088 228.672 192.736 242.12 210.248 242.12V240.12C193.92 240.12 182.088 227.648 182.088 210.88H180.088ZM210.248 242.12C229.586 242.12 250.128 224.685 250.128 194.68H248.128C248.128 223.715 228.35 240.12 210.248 240.12V242.12ZM250.128 194.68V151.48H248.128V194.68H250.128ZM248.234 151.033C245.145 157.21 239.522 161.113 232.621 164.202C229.173 165.746 225.44 167.072 221.584 168.378C217.741 169.68 213.765 170.966 209.898 172.413C202.165 175.307 194.695 178.906 189.167 184.817C183.605 190.764 180.088 198.961 180.088 210.88H182.088C182.088 199.399 185.457 191.711 190.627 186.183C195.831 180.619 202.941 177.153 210.599 174.287C214.427 172.854 218.347 171.586 222.225 170.272C226.09 168.963 229.899 167.612 233.438 166.028C240.509 162.862 246.631 158.71 250.023 151.927L248.234 151.033ZM360.211 134.56H359.211L361.178 134.813L360.211 134.56ZM421.771 89.56L422.765 89.662L422.836 88.9746L422.218 88.6656L421.771 89.56ZM418.891 117.64L418.347 118.48L419.719 119.367L419.885 117.742L418.891 117.64ZM360.211 165.88L359.211 165.87V165.88H360.211ZM391.531 247.96H392.531V247.023L391.596 246.962L391.531 247.96ZM391.531 253V254H392.531V253H391.531ZM309.811 253H308.811V254H309.811V253ZM309.811 247.96L309.672 246.97L308.811 247.09V247.96H309.811ZM314.131 103.6L314.219 102.604L314.21 102.603L314.202 102.603L314.131 103.6ZM309.091 103.24H308.091V104.171L309.019 104.237L309.091 103.24ZM309.091 98.2L308.851 97.229L308.091 97.4165V98.2H309.091ZM360.211 85.6H361.211V84.3236L359.971 84.629L360.211 85.6ZM361.178 134.813C369.053 104.746 387.532 86.6 406.291 86.6V84.6C386.169 84.6 367.209 103.894 359.243 134.307L361.178 134.813ZM406.291 86.6C411.148 86.6 416.395 87.9902 421.323 90.4544L422.218 88.6656C417.066 86.0897 411.514 84.6 406.291 84.6V86.6ZM420.776 89.458L417.896 117.538L419.885 117.742L422.765 89.662L420.776 89.458ZM419.434 116.8C413.169 112.747 406.143 110.52 399.091 110.52V112.52C405.719 112.52 412.372 114.613 418.347 118.48L419.434 116.8ZM399.091 110.52C389.065 110.52 379.152 114.889 371.72 124.029C364.296 133.159 359.392 146.988 359.211 165.87L361.211 165.89C361.389 147.332 366.205 133.981 373.271 125.291C380.329 116.611 389.676 112.52 399.091 112.52V110.52ZM359.211 165.88V228.88H361.211V165.88H359.211ZM359.211 228.88C359.211 232.069 359.821 234.873 361.137 237.299C362.455 239.729 364.449 241.719 367.12 243.327C372.42 246.516 380.454 248.236 391.465 248.958L391.596 246.962C380.647 246.244 373.021 244.544 368.151 241.613C365.737 240.161 364.018 238.416 362.895 236.346C361.77 234.272 361.211 231.811 361.211 228.88H359.211ZM390.531 247.96V253H392.531V247.96H390.531ZM391.531 252H309.811V254H391.531V252ZM310.811 253V247.96H308.811V253H310.811ZM309.949 248.95C317.749 247.862 323.389 245.937 327.078 242.68C330.821 239.373 332.411 234.829 332.411 228.88H330.411C330.411 234.451 328.94 238.367 325.754 241.18C322.512 244.043 317.353 245.898 309.672 246.97L309.949 248.95ZM332.411 228.88V121.96H330.411V228.88H332.411ZM332.411 121.96C332.411 116.07 331.123 111.459 328.095 108.186C325.068 104.915 320.464 103.155 314.219 102.604L314.043 104.596C320.037 105.125 324.073 106.785 326.627 109.544C329.178 112.301 330.411 116.33 330.411 121.96H332.411ZM314.202 102.603L309.162 102.243L309.019 104.237L314.059 104.597L314.202 102.603ZM310.091 103.24V98.2H308.091V103.24H310.091ZM309.33 99.1709L360.45 86.5709L359.971 84.629L308.851 97.229L309.33 99.1709ZM359.211 85.6V134.56H361.211V85.6H359.211ZM527.695 234.28L528.599 234.708L529.003 233.854L528.174 233.402L527.695 234.28ZM449.575 100H450.575V99H449.575V100ZM428.335 100H427.335V101H428.335V100ZM428.335 94.96L427.663 94.2193L427.335 94.5169V94.96H428.335ZM473.695 43.48V42.48H473.153L472.857 42.9341L473.695 43.48ZM478.735 43.48H479.735V42.48H478.735V43.48ZM478.735 91H477.735V92H478.735V91ZM525.175 91H526.175V90H525.175V91ZM525.175 100V101H526.175V100H525.175ZM478.735 100V99H477.735V100H478.735ZM523.735 232.12L524.214 231.242L523.432 230.816L522.918 231.543L523.735 232.12ZM526.791 233.852C520.469 247.198 506.772 256.68 490.615 256.68V258.68C507.578 258.68 521.961 248.722 528.599 234.708L526.791 233.852ZM490.615 256.68C477.517 256.68 467.566 252.53 460.868 244.614C454.147 236.67 450.575 224.787 450.575 209.08H448.575C448.575 225.053 452.203 237.47 459.342 245.906C466.504 254.37 477.073 258.68 490.615 258.68V256.68ZM450.575 209.08V100H448.575V209.08H450.575ZM449.575 99H428.335V101H449.575V99ZM429.335 100V94.96H427.335V100H429.335ZM429.007 95.7007C444.509 81.6407 458.983 67.8929 474.533 44.0259L472.857 42.9341C457.447 66.5871 443.121 80.1993 427.663 94.2193L429.007 95.7007ZM473.695 44.48H478.735V42.48H473.695V44.48ZM477.735 43.48V91H479.735V43.48H477.735ZM478.735 92H525.175V90H478.735V92ZM524.175 91V100H526.175V91H524.175ZM525.175 99H478.735V101H525.175V99ZM477.735 100V210.52H479.735V100H477.735ZM477.735 210.52C477.735 220.905 480.01 229.006 484.677 234.521C489.369 240.066 496.343 242.84 505.375 242.84V240.84C496.767 240.84 490.421 238.214 486.203 233.229C481.96 228.214 479.735 220.655 479.735 210.52H477.735ZM505.375 242.84C513.281 242.84 520.057 239.065 524.552 232.697L522.918 231.543C518.773 237.415 512.589 240.84 505.375 240.84V242.84ZM523.256 232.998L527.216 235.158L528.174 233.402L524.214 231.242L523.256 232.998ZM715.058 247.96H716.058V247.09L715.196 246.97L715.058 247.96ZM715.058 253V254H716.058V253H715.058ZM642.698 253H641.698V254H642.698V253ZM642.698 247.96L642.563 246.969L641.698 247.087V247.96H642.698ZM611.018 247.96H612.018V247.087L611.153 246.969L611.018 247.96ZM611.018 253V254H612.018V253H611.018ZM538.658 253H537.658V254H538.658V253ZM538.658 247.96L538.523 246.969L537.658 247.087V247.96H538.658ZM543.338 20.44L543.426 19.4439L543.418 19.4431L543.409 19.4425L543.338 20.44ZM538.298 20.08H537.298V21.0111L538.227 21.0775L538.298 20.08ZM538.298 15.04L538.052 14.0707L537.298 14.2619V15.04H538.298ZM589.418 2.07999H590.418V0.79483L589.172 1.11066L589.418 2.07999ZM589.418 128.08H588.418L590.36 128.415L589.418 128.08ZM692.458 228.88C692.458 234.829 694.047 239.373 697.791 242.68C701.48 245.937 707.12 247.862 714.92 248.95L715.196 246.97C707.516 245.898 702.356 244.043 699.115 241.18C695.929 238.367 694.458 234.451 694.458 228.88H692.458ZM714.058 247.96V253H716.058V247.96H714.058ZM715.058 252H642.698V254H715.058V252ZM643.698 253V247.96H641.698V253H643.698ZM642.833 248.951C650.81 247.863 656.457 245.939 660.105 242.675C663.808 239.362 665.298 234.813 665.298 228.88H663.298C663.298 234.467 661.908 238.378 658.771 241.185C655.579 244.041 650.426 245.897 642.563 246.969L642.833 248.951ZM665.298 228.88V142.84H663.298V228.88H665.298ZM665.298 142.84C665.298 129.358 661.835 119.716 655.889 113.442C649.936 107.161 641.633 104.4 632.258 104.4V106.4C641.244 106.4 648.96 109.039 654.437 114.818C659.921 120.604 663.298 129.682 663.298 142.84H665.298ZM632.258 104.4C621.586 104.4 610.607 108.173 602.295 116.624C593.976 125.082 588.418 138.133 588.418 156.52H590.418C590.418 138.547 595.84 126.038 603.721 118.026C611.609 110.007 622.05 106.4 632.258 106.4V104.4ZM588.418 156.52V228.88H590.418V156.52H588.418ZM588.418 228.88C588.418 234.813 589.908 239.362 593.611 242.675C597.259 245.939 602.906 247.863 610.883 248.951L611.153 246.969C603.29 245.897 598.137 244.041 594.945 241.185C591.808 238.378 590.418 234.467 590.418 228.88H588.418ZM610.018 247.96V253H612.018V247.96H610.018ZM611.018 252H538.658V254H611.018V252ZM539.658 253V247.96H537.658V253H539.658ZM538.793 248.951C546.77 247.863 552.417 245.939 556.065 242.675C559.768 239.362 561.258 234.813 561.258 228.88H559.258C559.258 234.467 557.868 238.378 554.731 241.185C551.539 244.041 546.386 245.897 538.523 246.969L538.793 248.951ZM561.258 228.88V38.44H559.258V228.88H561.258ZM561.258 38.44C561.258 32.5665 560.068 28.0375 557.123 24.8467C554.18 21.6584 549.657 19.9936 543.426 19.4439L543.25 21.4361C549.259 21.9663 553.196 23.5416 555.653 26.2033C558.108 28.8625 559.258 32.7935 559.258 38.44H561.258ZM543.409 19.4425L538.369 19.0825L538.227 21.0775L543.267 21.4374L543.409 19.4425ZM539.298 20.08V15.04H537.298V20.08H539.298ZM538.544 16.0093L589.664 3.04932L589.172 1.11066L538.052 14.0707L538.544 16.0093ZM588.418 2.07999V128.08H590.418V2.07999H588.418ZM590.36 128.415C599.958 101.4 619.776 86.6 645.218 86.6V84.6C618.821 84.6 598.318 100.04 588.476 127.745L590.36 128.415ZM645.218 86.6C659.578 86.6 671.348 91.2029 679.536 100.136C687.734 109.079 692.458 122.489 692.458 140.32H694.458C694.458 122.151 689.642 108.201 681.01 98.7843C672.369 89.3571 660.018 84.6 645.218 84.6V86.6ZM692.458 140.32V228.88H694.458V140.32H692.458ZM764.401 144.28V145.28H765.755L765.356 143.986L764.401 144.28ZM731.641 144.28L730.641 144.258L730.618 145.28H731.641V144.28ZM876.721 240.76L876.633 241.756L876.641 241.757L876.649 241.757L876.721 240.76ZM881.761 241.12H882.761V240.189L881.832 240.123L881.761 241.12ZM881.761 246.16L882.003 247.13L882.761 246.941V246.16H881.761ZM831.361 258.76H830.361V260.041L831.603 259.73L831.361 258.76ZM831.361 215.56H832.361L830.404 215.268L831.361 215.56ZM830.641 151.48H831.641L829.746 151.033L830.641 151.48ZM779.161 257.4C765.329 257.4 753.701 253.058 745.543 245.645C737.392 238.239 732.641 227.713 732.641 215.2H730.641C730.641 228.247 735.609 239.321 744.198 247.125C752.78 254.922 764.912 259.4 779.161 259.4V257.4ZM732.641 215.2C732.641 199.125 738.689 188.908 747.727 181.803C756.836 174.643 769.033 170.601 781.415 167.067C793.71 163.557 806.244 160.538 815.653 155.377C820.381 152.784 824.388 149.618 827.21 145.517C830.042 141.404 831.641 136.41 831.641 130.24H829.641C829.641 136.04 828.146 140.631 825.563 144.383C822.972 148.148 819.244 151.127 814.691 153.624C805.537 158.645 793.321 161.588 780.866 165.143C768.499 168.674 755.945 172.8 746.491 180.231C736.968 187.717 730.641 198.515 730.641 215.2H732.641ZM831.641 130.24C831.641 119.396 828.053 110.224 821.773 103.758C815.491 97.2899 806.582 93.6 796.081 93.6V95.6C806.099 95.6 814.471 99.1101 820.338 105.152C826.208 111.196 829.641 119.844 829.641 130.24H831.641ZM796.081 93.6C785.195 93.6 776.459 97.6673 770.453 104.325C764.458 110.971 761.241 120.132 761.241 130.24H763.241C763.241 120.548 766.323 111.889 771.938 105.665C777.542 99.4527 785.726 95.6 796.081 95.6V93.6ZM761.241 130.24C761.241 134.66 761.976 139.8 763.445 144.574L765.356 143.986C763.945 139.4 763.241 134.46 763.241 130.24H761.241ZM764.401 143.28H731.641V145.28H764.401V143.28ZM732.64 144.302C732.995 128.18 739.368 113.772 750.633 103.39C761.899 93.0078 778.117 86.6 798.241 86.6V84.6C777.684 84.6 760.962 91.1522 749.278 101.92C737.593 112.688 731.007 127.62 730.641 144.258L732.64 144.302ZM798.241 86.6C817.128 86.6 832.255 92.1212 842.65 101.768C853.038 111.408 858.801 125.257 858.801 142.12H860.801C860.801 124.783 854.863 110.372 844.011 100.302C833.166 90.2387 817.513 84.6 798.241 84.6V86.6ZM858.801 142.12V222.76H860.801V142.12H858.801ZM858.801 222.76C858.801 228.633 859.99 233.162 862.936 236.353C865.879 239.542 870.402 241.206 876.633 241.756L876.809 239.764C870.799 239.234 866.862 237.658 864.405 234.997C861.951 232.337 860.801 228.406 860.801 222.76H858.801ZM876.649 241.757L881.689 242.117L881.832 240.123L876.792 239.763L876.649 241.757ZM880.761 241.12V246.16H882.761V241.12H880.761ZM881.518 245.19L831.118 257.79L831.603 259.73L882.003 247.13L881.518 245.19ZM832.361 258.76V215.56H830.361V258.76H832.361ZM830.404 215.268C825.946 229.89 819.2 240.405 810.578 247.268C801.964 254.124 791.394 257.4 779.161 257.4V259.4C791.767 259.4 802.798 256.016 811.823 248.832C820.841 241.655 827.775 230.75 832.317 215.852L830.404 215.268ZM761.601 210.88C761.601 228.672 774.249 242.12 791.761 242.12V240.12C775.433 240.12 763.601 227.648 763.601 210.88H761.601ZM791.761 242.12C811.098 242.12 831.641 224.685 831.641 194.68H829.641C829.641 223.715 809.863 240.12 791.761 240.12V242.12ZM831.641 194.68V151.48H829.641V194.68H831.641ZM829.746 151.033C826.658 157.21 821.034 161.113 814.133 164.202C810.686 165.746 806.952 167.072 803.096 168.378C799.254 169.68 795.277 170.966 791.41 172.413C783.678 175.307 776.208 178.906 770.679 184.817C765.117 190.764 761.601 198.961 761.601 210.88H763.601C763.601 199.399 766.969 191.711 772.14 186.183C777.343 180.619 784.453 177.153 792.111 174.287C795.939 172.854 799.86 171.586 803.738 170.272C807.602 168.963 811.411 167.612 814.95 166.028C822.022 162.862 828.143 158.71 831.535 151.927L829.746 151.033ZM925.163 257.4C912.025 257.4 902.763 248.117 902.763 235.36H900.763C900.763 249.243 910.941 259.4 925.163 259.4V257.4ZM902.763 235.36C902.763 222.994 911.993 214.04 925.163 214.04V212.04C910.973 212.04 900.763 221.806 900.763 235.36H902.763ZM925.163 214.04C937.984 214.04 947.563 223.004 947.563 235.36H949.563C949.563 221.796 938.983 212.04 925.163 212.04V214.04ZM947.563 235.36C947.563 248.107 937.951 257.4 925.163 257.4V259.4C939.015 259.4 949.563 249.253 949.563 235.36H947.563ZM1012.27 144.28V145.28H1013.62L1013.22 143.986L1012.27 144.28ZM979.506 144.28L978.506 144.258L978.484 145.28H979.506V144.28ZM1124.59 240.76L1124.5 241.756L1124.51 241.757L1124.52 241.757L1124.59 240.76ZM1129.63 241.12H1130.63V240.189L1129.7 240.123L1129.63 241.12ZM1129.63 246.16L1129.87 247.13L1130.63 246.941V246.16H1129.63ZM1079.23 258.76H1078.23V260.041L1079.47 259.73L1079.23 258.76ZM1079.23 215.56H1080.23L1078.27 215.268L1079.23 215.56ZM1078.51 151.48H1079.51L1077.61 151.033L1078.51 151.48ZM1027.03 257.4C1013.19 257.4 1001.57 253.058 993.409 245.645C985.258 238.239 980.506 227.713 980.506 215.2H978.506C978.506 228.247 983.475 239.321 992.064 247.125C1000.65 254.922 1012.78 259.4 1027.03 259.4V257.4ZM980.506 215.2C980.506 199.125 986.554 188.908 995.593 181.803C1004.7 174.643 1016.9 170.601 1029.28 167.067C1041.58 163.557 1054.11 160.538 1063.52 155.377C1068.25 152.784 1072.25 149.618 1075.08 145.517C1077.91 141.404 1079.51 136.41 1079.51 130.24H1077.51C1077.51 136.04 1076.01 140.631 1073.43 144.383C1070.84 148.148 1067.11 151.127 1062.56 153.624C1053.4 158.645 1041.19 161.588 1028.73 165.143C1016.36 168.674 1003.81 172.8 994.357 180.231C984.833 187.717 978.506 198.515 978.506 215.2H980.506ZM1079.51 130.24C1079.51 119.396 1075.92 110.224 1069.64 103.758C1063.36 97.2899 1054.45 93.6 1043.95 93.6V95.6C1053.96 95.6 1062.34 99.1101 1068.2 105.152C1074.07 111.196 1077.51 119.844 1077.51 130.24H1079.51ZM1043.95 93.6C1033.06 93.6 1024.32 97.6673 1018.32 104.325C1012.32 110.971 1009.11 120.132 1009.11 130.24H1011.11C1011.11 120.548 1014.19 111.889 1019.8 105.665C1025.41 99.4527 1033.59 95.6 1043.95 95.6V93.6ZM1009.11 130.24C1009.11 134.66 1009.84 139.8 1011.31 144.574L1013.22 143.986C1011.81 139.4 1011.11 134.46 1011.11 130.24H1009.11ZM1012.27 143.28H979.506V145.28H1012.27V143.28ZM980.506 144.302C980.86 128.18 987.233 113.772 998.499 103.39C1009.77 93.0078 1025.98 86.6 1046.11 86.6V84.6C1025.55 84.6 1008.83 91.1522 997.144 101.92C985.459 112.688 978.872 127.62 978.506 144.258L980.506 144.302ZM1046.11 86.6C1064.99 86.6 1080.12 92.1212 1090.52 101.768C1100.9 111.408 1106.67 125.257 1106.67 142.12H1108.67C1108.67 124.783 1102.73 110.372 1091.88 100.302C1081.03 90.2387 1065.38 84.6 1046.11 84.6V86.6ZM1106.67 142.12V222.76H1108.67V142.12H1106.67ZM1106.67 222.76C1106.67 228.633 1107.86 233.162 1110.8 236.353C1113.74 239.542 1118.27 241.206 1124.5 241.756L1124.67 239.764C1118.66 239.234 1114.73 237.658 1112.27 234.997C1109.82 232.337 1108.67 228.406 1108.67 222.76H1106.67ZM1124.52 241.757L1129.55 242.117L1129.7 240.123L1124.66 239.763L1124.52 241.757ZM1128.63 241.12V246.16H1130.63V241.12H1128.63ZM1129.38 245.19L1078.98 257.79L1079.47 259.73L1129.87 247.13L1129.38 245.19ZM1080.23 258.76V215.56H1078.23V258.76H1080.23ZM1078.27 215.268C1073.81 229.89 1067.07 240.405 1058.44 247.268C1049.83 254.124 1039.26 257.4 1027.03 257.4V259.4C1039.63 259.4 1050.66 256.016 1059.69 248.832C1068.71 241.655 1075.64 230.75 1080.18 215.852L1078.27 215.268ZM1009.47 210.88C1009.47 228.672 1022.11 242.12 1039.63 242.12V240.12C1023.3 240.12 1011.47 227.648 1011.47 210.88H1009.47ZM1039.63 242.12C1058.96 242.12 1079.51 224.685 1079.51 194.68H1077.51C1077.51 223.715 1057.73 240.12 1039.63 240.12V242.12ZM1079.51 194.68V151.48H1077.51V194.68H1079.51ZM1077.61 151.033C1074.52 157.21 1068.9 161.113 1062 164.202C1058.55 165.746 1054.82 167.072 1050.96 168.378C1047.12 169.68 1043.14 170.966 1039.28 172.413C1031.54 175.307 1024.07 178.906 1018.54 184.817C1012.98 190.764 1009.47 198.961 1009.47 210.88H1011.47C1011.47 199.399 1014.83 191.711 1020.01 186.183C1025.21 180.619 1032.32 177.153 1039.98 174.287C1043.8 172.854 1047.73 171.586 1051.6 170.272C1055.47 168.963 1059.28 167.612 1062.82 166.028C1069.89 162.862 1076.01 158.71 1079.4 151.927L1077.61 151.033ZM1211.19 247.96H1212.19V247.09L1211.33 246.97L1211.19 247.96ZM1211.19 253V254H1212.19V253H1211.19ZM1139.19 253H1138.19V254H1139.19V253ZM1139.19 247.96L1139.05 246.97L1138.19 247.09V247.96H1139.19ZM1143.51 103.6L1143.6 102.604L1143.59 102.603L1143.58 102.603L1143.51 103.6ZM1138.47 103.24H1137.47V104.171L1138.4 104.237L1138.47 103.24ZM1138.47 98.2L1138.23 97.229L1137.47 97.4165V98.2H1138.47ZM1189.59 85.6H1190.59V84.3236L1189.35 84.629L1189.59 85.6ZM1188.59 228.88C1188.59 234.829 1190.18 239.373 1193.92 242.68C1197.61 245.937 1203.25 247.862 1211.05 248.95L1211.33 246.97C1203.65 245.898 1198.49 244.043 1195.25 241.18C1192.06 238.367 1190.59 234.451 1190.59 228.88H1188.59ZM1210.19 247.96V253H1212.19V247.96H1210.19ZM1211.19 252H1139.19V254H1211.19V252ZM1140.19 253V247.96H1138.19V253H1140.19ZM1139.33 248.95C1147.13 247.862 1152.77 245.937 1156.46 242.68C1160.2 239.373 1161.79 234.829 1161.79 228.88H1159.79C1159.79 234.451 1158.32 238.367 1155.13 241.18C1151.89 244.043 1146.73 245.898 1139.05 246.97L1139.33 248.95ZM1161.79 228.88V121.96H1159.79V228.88H1161.79ZM1161.79 121.96C1161.79 116.07 1160.5 111.459 1157.47 108.186C1154.45 104.915 1149.84 103.155 1143.6 102.604L1143.42 104.596C1149.42 105.125 1153.45 106.785 1156 109.544C1158.56 112.301 1159.79 116.33 1159.79 121.96H1161.79ZM1143.58 102.603L1138.54 102.243L1138.4 104.237L1143.44 104.597L1143.58 102.603ZM1139.47 103.24V98.2H1137.47V103.24H1139.47ZM1138.71 99.1709L1189.83 86.5709L1189.35 84.629L1138.23 97.229L1138.71 99.1709ZM1188.59 85.6V228.88H1190.59V85.6H1188.59ZM1153.51 22.24C1153.51 10.5946 1162.74 1.63998 1175.19 1.63998V-0.360016C1161.72 -0.360016 1151.51 9.40536 1151.51 22.24H1153.51ZM1175.19 1.63998C1187.25 1.63998 1196.15 10.5631 1196.15 22.24H1198.15C1198.15 9.43684 1188.33 -0.360016 1175.19 -0.360016V1.63998ZM1196.15 22.24C1196.15 33.9168 1187.25 42.84 1175.19 42.84V44.84C1188.33 44.84 1198.15 35.0431 1198.15 22.24H1196.15ZM1175.19 42.84C1162.74 42.84 1153.51 33.8853 1153.51 22.24H1151.51C1151.51 35.0746 1161.72 44.84 1175.19 44.84V42.84Z" fill="url(#paint0_radial_99_5303)" fill-opacity="0.6" mask="url(#path-1-outside-1_99_5303)"/>
<defs>
<radialGradient id="paint0_radial_99_5303" cx="0" cy="0" r="1" gradientUnits="userSpaceOnUse" gradientTransform="translate(601.44 273.5) rotate(-90) scale(80.5 267.804)">
<stop stop-color="white"/>
<stop offset="1" stop-color="white" stop-opacity="0.06"/>
</radialGradient>
</defs>
</svg>
