<svg width="366" height="82" viewBox="0 0 366 82" fill="none" xmlns="http://www.w3.org/2000/svg">
<mask id="path-1-outside-1_1_5645" maskUnits="userSpaceOnUse" x="-19" y="-1" width="400" height="86" fill="black">
<rect fill="white" x="-19" y="-1" width="400" height="86"/>
<path d="M-9.99047 37.804C-11.8465 33.512 -14.0505 31.656 -17.8785 31.424V29.8H5.66953V31.424C1.60953 31.54 -0.246469 32.7 -0.246469 35.136C-0.246469 35.948 -0.0144685 36.992 0.449531 38.268L13.2095 70.4L26.0855 38.732C26.6655 37.456 26.8975 36.296 26.8975 35.368C26.8975 32.816 24.8095 31.656 20.2855 31.424V29.8H37.2215V31.424C33.6255 31.772 31.1895 33.976 29.1015 38.964L10.5415 83.624H8.91753L-9.99047 37.804ZM53.0311 83.74C43.9831 83.74 37.7191 78.056 37.7191 69.82C37.7191 48.708 69.6191 57.872 69.6191 42.444C69.6191 35.6 65.0951 30.96 58.4831 30.96C51.6391 30.96 47.5791 36.064 47.5791 42.444C47.5791 43.836 47.8111 45.46 48.2751 46.968H37.7191C37.9511 36.412 46.0711 28.06 59.1791 28.06C71.4751 28.06 79.0151 35.252 79.0151 46.272V72.256C79.0151 75.968 80.5231 77.708 84.4671 78.056L86.0911 78.172V79.796L69.8511 83.856V69.936C66.9511 79.448 61.0351 83.74 53.0311 83.74ZM47.6951 68.428C47.6951 73.996 51.6391 78.172 57.0911 78.172C63.1231 78.172 69.6191 72.72 69.6191 63.208V49.288C65.4431 57.64 47.6951 53.348 47.6951 68.428ZM105.412 43.836C107.964 34.092 113.996 28.06 120.26 28.06C121.884 28.06 123.624 28.524 125.248 29.336L124.32 38.384C122.348 37.108 120.144 36.412 117.94 36.412C111.676 36.412 105.528 41.864 105.412 53.928V74.228C105.412 78.172 108.428 79.912 115.504 80.376V82H89.1723V80.376C94.1603 79.68 96.1323 77.94 96.1323 74.228V39.776C96.1323 36.064 94.5083 34.208 90.5643 33.86L88.9403 33.744V32.12L105.412 28.06V43.836ZM159.379 75.968C157.291 80.376 152.767 83.508 147.431 83.508C138.847 83.508 134.207 78.056 134.207 67.848V32.7H127.363V31.076C132.351 26.552 136.991 22.144 141.979 14.488H143.603V29.8H158.567V32.7H143.603V68.312C143.603 74.924 146.503 78.404 152.187 78.404C154.623 78.404 156.711 77.244 158.103 75.272L159.379 75.968ZM212.792 74.228C212.792 77.94 214.764 79.68 219.752 80.376V82H196.436V80.376C201.54 79.68 203.396 77.94 203.396 74.228V46.504C203.396 37.92 198.988 34.44 193.072 34.44C186.344 34.44 179.268 39.196 179.268 50.912V74.228C179.268 77.94 181.124 79.68 186.228 80.376V82H162.912V80.376C168.016 79.68 169.872 77.94 169.872 74.228V12.864C169.872 9.152 168.364 7.412 164.42 7.064L162.796 6.948V5.324L179.268 1.148V41.748C182.4 32.932 188.896 28.06 197.248 28.06C206.644 28.06 212.792 34.092 212.792 45.692V74.228ZM240.407 83.74C231.359 83.74 225.095 78.056 225.095 69.82C225.095 48.708 256.995 57.872 256.995 42.444C256.995 35.6 252.471 30.96 245.859 30.96C239.015 30.96 234.955 36.064 234.955 42.444C234.955 43.836 235.187 45.46 235.651 46.968H225.095C225.327 36.412 233.447 28.06 246.555 28.06C258.851 28.06 266.391 35.252 266.391 46.272V72.256C266.391 75.968 267.899 77.708 271.843 78.056L273.467 78.172V79.796L257.227 83.856V69.936C254.327 79.448 248.411 83.74 240.407 83.74ZM235.071 68.428C235.071 73.996 239.015 78.172 244.467 78.172C250.499 78.172 256.995 72.72 256.995 63.208V49.288C252.819 57.64 235.071 53.348 235.071 68.428ZM287.453 83.74C283.045 83.74 279.913 80.608 279.913 76.316C279.913 72.14 283.045 69.124 287.453 69.124C291.745 69.124 294.993 72.14 294.993 76.316C294.993 80.608 291.745 83.74 287.453 83.74ZM320.275 83.74C311.227 83.74 304.963 78.056 304.963 69.82C304.963 48.708 336.863 57.872 336.863 42.444C336.863 35.6 332.339 30.96 325.727 30.96C318.883 30.96 314.823 36.064 314.823 42.444C314.823 43.836 315.055 45.46 315.519 46.968H304.963C305.195 36.412 313.315 28.06 326.423 28.06C338.719 28.06 346.259 35.252 346.259 46.272V72.256C346.259 75.968 347.767 77.708 351.711 78.056L353.335 78.172V79.796L337.095 83.856V69.936C334.195 79.448 328.279 83.74 320.275 83.74ZM314.939 68.428C314.939 73.996 318.883 78.172 324.335 78.172C330.367 78.172 336.863 72.72 336.863 63.208V49.288C332.687 57.64 314.939 53.348 314.939 68.428ZM372.656 74.228C372.656 77.94 374.628 79.68 379.616 80.376V82H356.416V80.376C361.404 79.68 363.376 77.94 363.376 74.228V39.776C363.376 36.064 361.752 34.208 357.808 33.86L356.184 33.744V32.12L372.656 28.06V74.228ZM360.708 7.644C360.708 3.7 363.84 0.683996 368.016 0.683996C372.076 0.683996 375.092 3.7 375.092 7.644C375.092 11.588 372.076 14.604 368.016 14.604C363.84 14.604 360.708 11.588 360.708 7.644Z"/>
</mask>
<path d="M-9.99047 37.804L-9.31962 37.5272L-9.32445 37.516L-9.99047 37.804ZM-17.8785 31.424H-18.6041V32.107L-17.9224 32.1483L-17.8785 31.424ZM-17.8785 29.8V29.0744H-18.6041V29.8H-17.8785ZM5.66953 29.8H6.39515V29.0744H5.66953V29.8ZM5.66953 31.424L5.69025 32.1493L6.39515 32.1292V31.424H5.66953ZM0.449532 38.268L-0.232405 38.516L-0.228779 38.5259L-0.224863 38.5358L0.449532 38.268ZM13.2095 70.4L12.5351 70.6678L13.2016 72.3461L13.8817 70.6733L13.2095 70.4ZM26.0855 38.732L25.4249 38.4317L25.4189 38.4451L25.4133 38.4587L26.0855 38.732ZM20.2855 31.424H19.5599V32.1134L20.2484 32.1487L20.2855 31.424ZM20.2855 29.8V29.0744H19.5599V29.8H20.2855ZM37.2215 29.8H37.9472V29.0744H37.2215V29.8ZM37.2215 31.424L37.2914 32.1462L37.9472 32.0828V31.424H37.2215ZM29.1015 38.964L28.4322 38.6838L28.4315 38.6855L29.1015 38.964ZM10.5415 83.624V84.3496H11.0258L11.2116 83.9025L10.5415 83.624ZM8.91753 83.624L8.24677 83.9008L8.43199 84.3496H8.91753V83.624ZM-9.32445 37.516C-10.2752 35.3174 -11.348 33.6622 -12.7362 32.5293C-14.1399 31.3837 -15.8034 30.8228 -17.8346 30.6997L-17.9224 32.1483C-16.1255 32.2572 -14.773 32.7403 -13.6538 33.6537C-12.5189 34.5798 -11.5618 35.9986 -10.6565 38.092L-9.32445 37.516ZM-17.1528 31.424V29.8H-18.6041V31.424H-17.1528ZM-17.8785 30.5256H5.66953V29.0744H-17.8785V30.5256ZM4.94391 29.8V31.424H6.39515V29.8H4.94391ZM5.64881 30.6987C3.57974 30.7578 1.94178 31.0817 0.803627 31.7952C-0.40045 32.55 -0.972092 33.6938 -0.972092 35.136H0.479155C0.479155 34.1422 0.835512 33.488 1.57444 33.0248C2.37928 32.5203 3.69932 32.2062 5.69025 32.1493L5.64881 30.6987ZM-0.972092 35.136C-0.972092 36.0706 -0.708576 37.2065 -0.232405 38.516L1.13147 38.02C0.67964 36.7775 0.479155 35.8254 0.479155 35.136H-0.972092ZM-0.224863 38.5358L12.5351 70.6678L13.8839 70.1322L1.12392 38.0002L-0.224863 38.5358ZM13.8817 70.6733L26.7577 39.0053L25.4133 38.4587L12.5373 70.1267L13.8817 70.6733ZM26.7461 39.0323C27.3633 37.6745 27.6232 36.4125 27.6232 35.368H26.1719C26.1719 36.1795 25.9678 37.2375 25.4249 38.4317L26.7461 39.0323ZM27.6232 35.368C27.6232 34.629 27.4712 33.9501 27.1323 33.3506C26.7929 32.7504 26.2903 32.2727 25.6552 31.9001C24.4119 31.1707 22.6133 30.8168 20.3227 30.6993L20.2484 32.1487C22.4818 32.2632 23.9891 32.6053 24.9209 33.1519C25.3732 33.4173 25.6754 33.7226 25.8689 34.0649C26.0629 34.4079 26.1719 34.831 26.1719 35.368H27.6232ZM21.0112 31.424V29.8H19.5599V31.424H21.0112ZM20.2855 30.5256H37.2215V29.0744H20.2855V30.5256ZM36.4959 29.8V31.424H37.9472V29.8H36.4959ZM37.1516 30.7017C35.207 30.8899 33.5476 31.5881 32.1039 32.9208C30.6775 34.2374 29.4967 36.1409 28.4322 38.6838L29.7709 39.2442C30.7944 36.7991 31.8755 35.1066 33.0882 33.9872C34.2835 32.8839 35.6401 32.3061 37.2914 32.1462L37.1516 30.7017ZM28.4315 38.6855L9.87147 83.3455L11.2116 83.9025L29.7716 39.2425L28.4315 38.6855ZM10.5415 82.8984H8.91753V84.3496H10.5415V82.8984ZM9.58829 83.3472L-9.31971 37.5272L-10.6612 38.0808L8.24677 83.9008L9.58829 83.3472ZM48.2751 46.968V47.6936H49.2575L48.9686 46.7546L48.2751 46.968ZM37.7191 46.968L36.9936 46.9521L36.9773 47.6936H37.7191V46.968ZM84.4671 78.056L84.4033 78.7789L84.4154 78.7798L84.4671 78.056ZM86.0911 78.172H86.8167V77.4964L86.1428 77.4482L86.0911 78.172ZM86.0911 79.796L86.2671 80.5L86.8167 80.3625V79.796H86.0911ZM69.8511 83.856H69.1254V84.7854L70.0271 84.56L69.8511 83.856ZM69.8511 69.936H70.5767L69.157 69.7244L69.8511 69.936ZM69.6191 49.288H70.3447L68.97 48.9635L69.6191 49.288ZM53.0311 83.0144C48.6585 83.0144 45.0135 81.6424 42.47 79.3315C39.932 77.0254 38.4447 73.744 38.4447 69.82H36.9934C36.9934 74.132 38.6382 77.8106 41.4941 80.4055C44.3446 82.9956 48.3556 84.4656 53.0311 84.4656V83.0144ZM38.4447 69.82C38.4447 64.7635 40.3372 61.5884 43.1519 59.3759C46.0175 57.1234 49.8753 55.8381 53.8682 54.6982C57.7977 53.5766 61.9005 52.5886 64.9836 50.8975C66.5426 50.0425 67.8899 48.9844 68.8461 47.5953C69.8086 46.1971 70.3447 44.5067 70.3447 42.444H68.8934C68.8934 44.2383 68.4327 45.6364 67.6507 46.7725C66.8623 47.9178 65.7174 48.8398 64.2857 49.6251C61.3877 51.2146 57.5155 52.1479 53.4699 53.3027C49.4878 54.4394 45.3706 55.7859 42.255 58.235C39.0885 60.7241 36.9934 64.3205 36.9934 69.82H38.4447ZM70.3447 42.444C70.3447 38.8596 69.1574 35.7987 67.0511 33.6299C64.9432 31.4596 61.9645 30.2344 58.4831 30.2344V31.6856C61.6136 31.6856 64.2029 32.7804 66.01 34.641C67.8187 36.5033 68.8934 39.1844 68.8934 42.444H70.3447ZM58.4831 30.2344C54.8684 30.2344 51.9422 31.5882 49.9258 33.8235C47.9173 36.0499 46.8534 39.1027 46.8534 42.444H48.3047C48.3047 39.4053 49.2708 36.7161 51.0033 34.7955C52.7279 32.8838 55.2537 31.6856 58.4831 31.6856V30.2344ZM46.8534 42.444C46.8534 43.9089 47.0964 45.6048 47.5815 47.1814L48.9686 46.7546C48.5257 45.3152 48.3047 43.7631 48.3047 42.444H46.8534ZM48.2751 46.2424H37.7191V47.6936H48.2751V46.2424ZM38.4445 46.9839C38.5564 41.8933 40.5668 37.3565 44.1123 34.0891C47.6583 30.8212 52.7819 28.7856 59.1791 28.7856V27.3344C52.4682 27.3344 46.9779 29.4748 43.1288 33.0219C39.2793 36.5695 37.1137 41.4867 36.9936 46.9521L38.4445 46.9839ZM59.1791 28.7856C65.1872 28.7856 69.9553 30.541 73.2145 33.5654C76.4681 36.5847 78.2894 40.9342 78.2894 46.272H79.7407C79.7407 40.5898 77.792 35.8333 74.2016 32.5016C70.6168 29.175 65.4669 27.3344 59.1791 27.3344V28.7856ZM78.2894 46.272V72.256H79.7407V46.272H78.2894ZM78.2894 72.256C78.2894 74.1944 78.6808 75.7743 79.7289 76.9097C80.7752 78.0432 82.3509 78.5977 84.4033 78.7788L84.5308 77.3332C82.6392 77.1663 81.4889 76.6768 80.7953 75.9253C80.1033 75.1757 79.7407 74.0296 79.7407 72.256H78.2894ZM84.4154 78.7798L86.0394 78.8958L86.1428 77.4482L84.5188 77.3322L84.4154 78.7798ZM85.3654 78.172V79.796H86.8167V78.172H85.3654ZM85.9151 79.092L69.6751 83.152L70.0271 84.56L86.2671 80.5L85.9151 79.092ZM70.5767 83.856V69.936H69.1254V83.856H70.5767ZM69.157 69.7244C67.7377 74.3797 65.6016 77.6896 62.9032 79.8373C60.2104 81.9805 56.8977 83.0144 53.0311 83.0144V84.4656C57.1684 84.4656 60.8157 83.3535 63.8069 80.9727C66.7926 78.5964 69.0644 75.0043 70.5452 70.1476L69.157 69.7244ZM46.9694 68.428C46.9694 74.3673 51.2095 78.8976 57.0911 78.8976V77.4464C52.0686 77.4464 48.4207 73.6247 48.4207 68.428H46.9694ZM57.0911 78.8976C63.5712 78.8976 70.3447 73.0716 70.3447 63.208H68.8934C68.8934 72.3684 62.6749 77.4464 57.0911 77.4464V78.8976ZM70.3447 63.208V49.288H68.8934V63.208H70.3447ZM68.97 48.9635C68.036 50.8315 66.3246 52.0391 64.1352 53.0192C63.0429 53.5082 61.8551 53.9305 60.6142 54.3509C59.3833 54.7679 58.0907 55.1861 56.8367 55.6554C54.3301 56.5936 51.8506 57.7794 50.0035 59.7543C48.1323 61.755 46.9694 64.4993 46.9694 68.428H48.4207C48.4207 64.8167 49.4763 62.4425 51.0634 60.7457C52.6745 59.023 54.893 57.9324 57.3454 57.0146C58.5709 56.5559 59.8231 56.1512 61.0799 55.7254C62.3266 55.303 63.5694 54.8625 64.7282 54.3438C67.041 53.3084 69.1141 51.9205 70.2681 49.6125L68.97 48.9635ZM105.412 43.836H104.687L106.114 44.0198L105.412 43.836ZM125.248 29.336L125.97 29.41L126.021 28.9112L125.573 28.687L125.248 29.336ZM124.32 38.384L123.926 38.9932L124.921 39.6371L125.042 38.458L124.32 38.384ZM105.412 53.928L104.687 53.921V53.928H105.412ZM115.504 80.376H116.23V79.6964L115.552 79.6519L115.504 80.376ZM115.504 82V82.7256H116.23V82H115.504ZM89.1723 82H88.4467V82.7256H89.1723V82ZM89.1723 80.376L89.072 79.6573L88.4467 79.7446V80.376H89.1723ZM90.5643 33.86L90.6281 33.1371L90.616 33.1362L90.5643 33.86ZM88.9403 33.744H88.2147V34.4196L88.8886 34.4678L88.9403 33.744ZM88.9403 32.12L88.7667 31.4155L88.2147 31.5515V32.12H88.9403ZM105.412 28.06H106.138V27.1338L105.239 27.3555L105.412 28.06ZM106.114 44.0198C108.633 34.4014 114.491 28.7856 120.26 28.7856V27.3344C113.502 27.3344 107.295 33.7826 104.71 43.6522L106.114 44.0198ZM120.26 28.7856C121.751 28.7856 123.381 29.2135 124.924 29.985L125.573 28.687C123.868 27.8345 122.017 27.3344 120.26 27.3344V28.7856ZM124.526 29.262L123.598 38.31L125.042 38.458L125.97 29.41L124.526 29.262ZM124.715 37.7748C122.637 36.4308 120.298 35.6864 117.94 35.6864V37.1376C119.99 37.1376 122.059 37.7852 123.926 38.9932L124.715 37.7748ZM117.94 35.6864C114.587 35.6864 111.278 37.1503 108.808 40.1882C106.344 43.2188 104.746 47.7714 104.687 53.921L106.138 53.935C106.195 48.0206 107.729 43.8152 109.934 41.1038C112.133 38.3997 115.03 37.1376 117.94 37.1376V35.6864ZM104.687 53.928V74.228H106.138V53.928H104.687ZM104.687 74.228C104.687 75.3073 104.894 76.2802 105.356 77.1333C105.82 77.9888 106.518 78.6795 107.431 79.2287C109.226 80.3088 111.896 80.8666 115.457 81.1001L115.552 79.6519C112.036 79.4214 109.661 78.8772 108.179 77.9853C107.453 77.5485 106.954 77.0357 106.632 76.4412C106.308 75.8443 106.138 75.1207 106.138 74.228H104.687ZM114.779 80.376V82H116.23V80.376H114.779ZM115.504 81.2744H89.1723V82.7256H115.504V81.2744ZM89.8979 82V80.376H88.4467V82H89.8979ZM89.2726 81.0947C91.81 80.7406 93.7243 80.1062 95.0031 78.9769C96.3219 77.8122 96.8579 76.221 96.8579 74.228H95.4067C95.4067 75.947 94.9567 77.0818 94.0425 77.8891C93.0883 78.7318 91.5226 79.3154 89.072 79.6573L89.2726 81.0947ZM96.8579 74.228V39.776H95.4067V74.228H96.8579ZM96.8579 39.776C96.8579 37.8255 96.4322 36.2224 95.3599 35.0637C94.2894 33.9068 92.6911 33.3192 90.6281 33.1372L90.5005 34.5828C92.3815 34.7488 93.5672 35.2632 94.2947 36.0493C95.0205 36.8336 95.4067 38.0145 95.4067 39.776H96.8579ZM90.616 33.1362L88.992 33.0202L88.8886 34.4678L90.5126 34.5838L90.616 33.1362ZM89.6659 33.744V32.12H88.2147V33.744H89.6659ZM89.114 32.8245L105.586 28.7645L105.239 27.3555L88.7667 31.4155L89.114 32.8245ZM104.687 28.06V43.836H106.138V28.06H104.687ZM159.38 75.968L160.035 76.2786L160.329 75.6592L159.727 75.331L159.38 75.968ZM134.207 32.7H134.933V31.9744H134.207V32.7ZM127.363 32.7H126.638V33.4256H127.363V32.7ZM127.363 31.076L126.876 30.5385L126.638 30.7545V31.076H127.363ZM141.979 14.488V13.7624H141.586L141.372 14.0919L141.979 14.488ZM143.603 14.488H144.329V13.7624H143.603V14.488ZM143.603 29.8H142.878V30.5256H143.603V29.8ZM158.567 29.8H159.293V29.0744H158.567V29.8ZM158.567 32.7V33.4256H159.293V32.7H158.567ZM143.603 32.7V31.9744H142.878V32.7H143.603ZM158.104 75.272L158.451 74.635L157.883 74.3254L157.511 74.8535L158.104 75.272ZM158.724 75.6574C156.75 79.8231 152.475 82.7824 147.431 82.7824V84.2336C153.06 84.2336 157.833 80.9289 160.035 76.2786L158.724 75.6574ZM147.431 82.7824C143.301 82.7824 140.219 81.4774 138.154 79.0373C136.073 76.577 134.933 72.8553 134.933 67.848H133.482C133.482 73.0487 134.662 77.1571 137.047 79.9747C139.448 82.8126 142.978 84.2336 147.431 84.2336V82.7824ZM134.933 67.848V32.7H133.482V67.848H134.933ZM134.207 31.9744H127.363V33.4256H134.207V31.9744ZM128.089 32.7V31.076H126.638V32.7H128.089ZM127.851 31.6135C132.855 27.0749 137.549 22.6177 142.587 14.8841L141.372 14.0919C136.434 21.6702 131.848 26.0291 126.876 30.5385L127.851 31.6135ZM141.979 15.2136H143.603V13.7624H141.979V15.2136ZM142.878 14.488V29.8H144.329V14.488H142.878ZM143.603 30.5256H158.567V29.0744H143.603V30.5256ZM157.842 29.8V32.7H159.293V29.8H157.842ZM158.567 31.9744H143.603V33.4256H158.567V31.9744ZM142.878 32.7V68.312H144.329V32.7H142.878ZM142.878 68.312C142.878 71.7088 143.621 74.428 145.21 76.3062C146.818 78.2062 149.192 79.1296 152.188 79.1296V77.6784C149.499 77.6784 147.581 76.8618 146.318 75.3688C145.036 73.854 144.329 71.5272 144.329 68.312H142.878ZM152.188 79.1296C154.874 79.1296 157.177 77.8423 158.696 75.6905L157.511 74.8535C156.246 76.6457 154.373 77.6784 152.188 77.6784V79.1296ZM157.756 75.909L159.032 76.605L159.727 75.331L158.451 74.635L157.756 75.909ZM219.752 80.376H220.478V79.7446L219.852 79.6573L219.752 80.376ZM219.752 82V82.7256H220.478V82H219.752ZM196.436 82H195.71V82.7256H196.436V82ZM196.436 80.376L196.338 79.657L195.71 79.7426V80.376H196.436ZM186.228 80.376H186.954V79.7426L186.326 79.657L186.228 80.376ZM186.228 82V82.7256H186.954V82H186.228ZM162.912 82H162.186V82.7256H162.912V82ZM162.912 80.376L162.814 79.657L162.186 79.7426V80.376H162.912ZM164.42 7.064L164.484 6.34108L164.472 6.34022L164.42 7.064ZM162.796 6.948H162.07V7.62364L162.744 7.67178L162.796 6.948ZM162.796 5.324L162.618 4.62063L162.07 4.75938V5.324H162.796ZM179.268 1.148H179.994V0.215456L179.09 0.444626L179.268 1.148ZM179.268 41.748H178.542L179.952 41.9909L179.268 41.748ZM212.066 74.228C212.066 76.221 212.602 77.8122 213.921 78.9769C215.2 80.1062 217.114 80.7406 219.652 81.0947L219.852 79.6573C217.402 79.3154 215.836 78.7318 214.882 77.8891C213.968 77.0818 213.518 75.947 213.518 74.228H212.066ZM219.026 80.376V82H220.478V80.376H219.026ZM219.752 81.2744H196.436V82.7256H219.752V81.2744ZM197.162 82V80.376H195.71V82H197.162ZM196.534 81.095C199.127 80.7413 201.047 80.1077 202.314 78.9738C203.621 77.8041 204.122 76.2095 204.122 74.228H202.67C202.67 75.9585 202.243 77.0899 201.346 77.8922C200.41 78.7303 198.849 79.3147 196.338 79.657L196.534 81.095ZM204.122 74.228V46.504H202.67V74.228H204.122ZM204.122 46.504C204.122 42.0943 202.989 38.874 200.979 36.7538C198.965 34.629 196.171 33.7144 193.072 33.7144V35.1656C195.889 35.1656 198.257 35.991 199.926 37.7522C201.599 39.518 202.67 42.3297 202.67 46.504H204.122ZM193.072 33.7144C189.54 33.7144 185.894 34.9638 183.13 37.7737C180.361 40.589 178.542 44.9038 178.542 50.912H179.994C179.994 45.2042 181.714 41.283 184.164 38.7913C186.621 36.2942 189.876 35.1656 193.072 35.1656V33.7144ZM178.542 50.912V74.228H179.994V50.912H178.542ZM178.542 74.228C178.542 76.2095 179.043 77.8041 180.35 78.9738C181.618 80.1077 183.537 80.7413 186.13 81.095L186.326 79.657C183.815 79.3147 182.255 78.7303 181.318 77.8922C180.421 77.0899 179.994 75.9585 179.994 74.228H178.542ZM185.502 80.376V82H186.954V80.376H185.502ZM186.228 81.2744H162.912V82.7256H186.228V81.2744ZM163.638 82V80.376H162.186V82H163.638ZM163.01 81.095C165.603 80.7413 167.523 80.1077 168.79 78.9738C170.097 77.8041 170.598 76.2095 170.598 74.228H169.146C169.146 75.9585 168.719 77.0899 167.822 77.8922C166.886 78.7303 165.325 79.3147 162.814 79.657L163.01 81.095ZM170.598 74.228V12.864H169.146V74.228H170.598ZM170.598 12.864C170.598 10.9256 170.206 9.34568 169.158 8.21032C168.112 7.07677 166.536 6.52227 164.484 6.34118L164.356 7.78681C166.248 7.95372 167.398 8.44323 168.092 9.19467C168.784 9.94431 169.146 11.0904 169.146 12.864H170.598ZM164.472 6.34022L162.848 6.22422L162.744 7.67178L164.368 7.78778L164.472 6.34022ZM163.522 6.948V5.324H162.07V6.948H163.522ZM162.974 6.02737L179.446 1.85137L179.09 0.444626L162.618 4.62063L162.974 6.02737ZM178.542 1.148V41.748H179.994V1.148H178.542ZM179.952 41.9909C182.995 33.4254 189.243 28.7856 197.248 28.7856V27.3344C188.55 27.3344 181.805 32.4386 178.584 41.5051L179.952 41.9909ZM197.248 28.7856C201.786 28.7856 205.462 30.2377 208.009 33.0163C210.563 35.8028 212.066 40.0149 212.066 45.692H213.518C213.518 39.7691 211.947 35.1652 209.078 32.0357C206.203 28.8983 202.106 27.3344 197.248 27.3344V28.7856ZM212.066 45.692V74.228H213.518V45.692H212.066ZM235.651 46.968V47.6936H236.634L236.345 46.7546L235.651 46.968ZM225.095 46.968L224.37 46.9521L224.354 47.6936H225.095V46.968ZM271.843 78.056L271.78 78.7789L271.792 78.7798L271.843 78.056ZM273.467 78.172H274.193V77.4964L273.519 77.4482L273.467 78.172ZM273.467 79.796L273.643 80.5L274.193 80.3625V79.796H273.467ZM257.227 83.856H256.502V84.7854L257.403 84.56L257.227 83.856ZM257.227 69.936H257.953L256.533 69.7244L257.227 69.936ZM256.995 49.288H257.721L256.346 48.9635L256.995 49.288ZM240.407 83.0144C236.035 83.0144 232.39 81.6424 229.846 79.3315C227.308 77.0254 225.821 73.744 225.821 69.82H224.37C224.37 74.132 226.014 77.8106 228.87 80.4055C231.721 82.9956 235.732 84.4656 240.407 84.4656V83.0144ZM225.821 69.82C225.821 64.7635 227.713 61.5884 230.528 59.3759C233.394 57.1234 237.252 55.8381 241.244 54.6982C245.174 53.5766 249.277 52.5886 252.36 50.8975C253.919 50.0425 255.266 48.9844 256.222 47.5953C257.185 46.1971 257.721 44.5067 257.721 42.444H256.27C256.27 44.2383 255.809 45.6364 255.027 46.7725C254.239 47.9178 253.094 48.8398 251.662 49.6251C248.764 51.2146 244.892 52.1479 240.846 53.3027C236.864 54.4394 232.747 55.7859 229.631 58.235C226.465 60.7241 224.37 64.3205 224.37 69.82H225.821ZM257.721 42.444C257.721 38.8596 256.534 35.7987 254.427 33.6299C252.319 31.4596 249.341 30.2344 245.859 30.2344V31.6856C248.99 31.6856 251.579 32.7804 253.386 34.641C255.195 36.5033 256.27 39.1844 256.27 42.444H257.721ZM245.859 30.2344C242.245 30.2344 239.318 31.5882 237.302 33.8235C235.294 36.0499 234.23 39.1027 234.23 42.444H235.681C235.681 39.4053 236.647 36.7161 238.38 34.7955C240.104 32.8838 242.63 31.6856 245.859 31.6856V30.2344ZM234.23 42.444C234.23 43.9089 234.473 45.6048 234.958 47.1814L236.345 46.7546C235.902 45.3152 235.681 43.7631 235.681 42.444H234.23ZM235.651 46.2424H225.095V47.6936H235.651V46.2424ZM225.821 46.9839C225.933 41.8933 227.943 37.3565 231.489 34.0891C235.035 30.8212 240.158 28.7856 246.555 28.7856V27.3344C239.844 27.3344 234.354 29.4748 230.505 33.0219C226.656 36.5695 224.49 41.4867 224.37 46.9521L225.821 46.9839ZM246.555 28.7856C252.563 28.7856 257.332 30.541 260.591 33.5654C263.844 36.5847 265.666 40.9342 265.666 46.272H267.117C267.117 40.5898 265.168 35.8333 261.578 32.5016C257.993 29.175 252.843 27.3344 246.555 27.3344V28.7856ZM265.666 46.272V72.256H267.117V46.272H265.666ZM265.666 72.256C265.666 74.1944 266.057 75.7743 267.105 76.9097C268.151 78.0432 269.727 78.5977 271.78 78.7788L271.907 77.3332C270.015 77.1663 268.865 76.6768 268.172 75.9253C267.48 75.1757 267.117 74.0296 267.117 72.256H265.666ZM271.792 78.7798L273.416 78.8958L273.519 77.4482L271.895 77.3322L271.792 78.7798ZM272.742 78.172V79.796H274.193V78.172H272.742ZM273.291 79.092L257.051 83.152L257.403 84.56L273.643 80.5L273.291 79.092ZM257.953 83.856V69.936H256.502V83.856H257.953ZM256.533 69.7244C255.114 74.3797 252.978 77.6896 250.279 79.8373C247.587 81.9805 244.274 83.0144 240.407 83.0144V84.4656C244.545 84.4656 248.192 83.3535 251.183 80.9727C254.169 78.5964 256.441 75.0043 257.921 70.1476L256.533 69.7244ZM234.346 68.428C234.346 74.3673 238.586 78.8976 244.467 78.8976V77.4464C239.445 77.4464 235.797 73.6247 235.797 68.428H234.346ZM244.467 78.8976C250.947 78.8976 257.721 73.0716 257.721 63.208H256.27C256.27 72.3684 250.051 77.4464 244.467 77.4464V78.8976ZM257.721 63.208V49.288H256.27V63.208H257.721ZM256.346 48.9635C255.412 50.8315 253.701 52.0391 251.511 53.0192C250.419 53.5082 249.231 53.9305 247.99 54.3509C246.759 54.7679 245.467 55.1861 244.213 55.6554C241.706 56.5936 239.227 57.7794 237.38 59.7543C235.509 61.755 234.346 64.4993 234.346 68.428H235.797C235.797 64.8167 236.853 62.4425 238.44 60.7457C240.051 59.023 242.269 57.9324 244.722 57.0146C245.947 56.5559 247.199 56.1512 248.456 55.7254C249.703 55.303 250.946 54.8625 252.104 54.3438C254.417 53.3084 256.49 51.9205 257.644 49.6125L256.346 48.9635ZM287.453 83.0144C283.438 83.0144 280.638 80.1998 280.638 76.316H279.187C279.187 81.0162 282.651 84.4656 287.453 84.4656V83.0144ZM280.638 76.316C280.638 72.5708 283.415 69.8496 287.453 69.8496V68.3984C282.675 68.3984 279.187 71.7092 279.187 76.316H280.638ZM287.453 69.8496C291.382 69.8496 294.267 72.578 294.267 76.316H295.718C295.718 71.702 292.107 68.3984 287.453 68.3984V69.8496ZM294.267 76.316C294.267 80.1925 291.359 83.0144 287.453 83.0144V84.4656C292.13 84.4656 295.718 81.0235 295.718 76.316H294.267ZM315.519 46.968V47.6936H316.502L316.213 46.7546L315.519 46.968ZM304.963 46.968L304.238 46.9521L304.221 47.6936H304.963V46.968ZM351.711 78.056L351.647 78.7789L351.659 78.7798L351.711 78.056ZM353.335 78.172H354.061V77.4964L353.387 77.4482L353.335 78.172ZM353.335 79.796L353.511 80.5L354.061 80.3625V79.796H353.335ZM337.095 83.856H336.37V84.7854L337.271 84.56L337.095 83.856ZM337.095 69.936H337.821L336.401 69.7244L337.095 69.936ZM336.863 49.288H337.589L336.214 48.9635L336.863 49.288ZM320.275 83.0144C315.903 83.0144 312.258 81.6424 309.714 79.3315C307.176 77.0254 305.689 73.744 305.689 69.82H304.238C304.238 74.132 305.882 77.8106 308.738 80.4055C311.589 82.9956 315.6 84.4656 320.275 84.4656V83.0144ZM305.689 69.82C305.689 64.7635 307.581 61.5884 310.396 59.3759C313.262 57.1234 317.119 55.8381 321.112 54.6982C325.042 53.5766 329.145 52.5886 332.228 50.8975C333.787 50.0425 335.134 48.9844 336.09 47.5953C337.053 46.1971 337.589 44.5067 337.589 42.444H336.138C336.138 44.2383 335.677 45.6364 334.895 46.7725C334.106 47.9178 332.961 48.8398 331.53 49.6251C328.632 51.2146 324.76 52.1479 320.714 53.3027C316.732 54.4394 312.615 55.7859 309.499 58.235C306.333 60.7241 304.238 64.3205 304.238 69.82H305.689ZM337.589 42.444C337.589 38.8596 336.401 35.7987 334.295 33.6299C332.187 31.4596 329.209 30.2344 325.727 30.2344V31.6856C328.858 31.6856 331.447 32.7804 333.254 34.641C335.063 36.5033 336.138 39.1844 336.138 42.444H337.589ZM325.727 30.2344C322.112 30.2344 319.186 31.5882 317.17 33.8235C315.161 36.0499 314.098 39.1027 314.098 42.444H315.549C315.549 39.4053 316.515 36.7161 318.247 34.7955C319.972 32.8838 322.498 31.6856 325.727 31.6856V30.2344ZM314.098 42.444C314.098 43.9089 314.34 45.6048 314.826 47.1814L316.213 46.7546C315.77 45.3152 315.549 43.7631 315.549 42.444H314.098ZM315.519 46.2424H304.963V47.6936H315.519V46.2424ZM305.689 46.9839C305.8 41.8933 307.811 37.3565 311.356 34.0891C314.902 30.8212 320.026 28.7856 326.423 28.7856V27.3344C319.712 27.3344 314.222 29.4748 310.373 33.0219C306.523 36.5695 304.358 41.4867 304.238 46.9521L305.689 46.9839ZM326.423 28.7856C332.431 28.7856 337.199 30.541 340.459 33.5654C343.712 36.5847 345.534 40.9342 345.534 46.272H346.985C346.985 40.5898 345.036 35.8333 341.446 32.5016C337.861 29.175 332.711 27.3344 326.423 27.3344V28.7856ZM345.534 46.272V72.256H346.985V46.272H345.534ZM345.534 72.256C345.534 74.1944 345.925 75.7743 346.973 76.9097C348.019 78.0432 349.595 78.5977 351.647 78.7788L351.775 77.3332C349.883 77.1663 348.733 76.6768 348.039 75.9253C347.347 75.1757 346.985 74.0296 346.985 72.256H345.534ZM351.659 78.7798L353.283 78.8958L353.387 77.4482L351.763 77.3322L351.659 78.7798ZM352.609 78.172V79.796H354.061V78.172H352.609ZM353.159 79.092L336.919 83.152L337.271 84.56L353.511 80.5L353.159 79.092ZM337.821 83.856V69.936H336.37V83.856H337.821ZM336.401 69.7244C334.982 74.3797 332.846 77.6896 330.147 79.8373C327.455 81.9805 324.142 83.0144 320.275 83.0144V84.4656C324.413 84.4656 328.06 83.3535 331.051 80.9727C334.037 78.5964 336.309 75.0043 337.789 70.1476L336.401 69.7244ZM314.214 68.428C314.214 74.3673 318.454 78.8976 324.335 78.8976V77.4464C319.313 77.4464 315.665 73.6247 315.665 68.428H314.214ZM324.335 78.8976C330.815 78.8976 337.589 73.0716 337.589 63.208H336.138C336.138 72.3684 329.919 77.4464 324.335 77.4464V78.8976ZM337.589 63.208V49.288H336.138V63.208H337.589ZM336.214 48.9635C335.28 50.8315 333.569 52.0391 331.379 53.0192C330.287 53.5082 329.099 53.9305 327.858 54.3509C326.627 54.7679 325.335 55.1861 324.081 55.6554C321.574 56.5936 319.095 57.7794 317.248 59.7543C315.376 61.755 314.214 64.4993 314.214 68.428H315.665C315.665 64.8167 316.72 62.4425 318.307 60.7457C319.919 59.023 322.137 57.9324 324.589 57.0146C325.815 56.5559 327.067 56.1512 328.324 55.7254C329.571 55.303 330.813 54.8625 331.972 54.3438C334.285 53.3084 336.358 51.9205 337.512 49.6125L336.214 48.9635ZM379.616 80.376H380.342V79.7446L379.717 79.6573L379.616 80.376ZM379.616 82V82.7256H380.342V82H379.616ZM356.416 82H355.691V82.7256H356.416V82ZM356.416 80.376L356.316 79.6573L355.691 79.7446V80.376H356.416ZM357.808 33.86L357.872 33.1371L357.86 33.1362L357.808 33.86ZM356.184 33.744H355.459V34.4196L356.133 34.4678L356.184 33.744ZM356.184 32.12L356.011 31.4155L355.459 31.5515V32.12H356.184ZM372.656 28.06H373.382V27.1338L372.483 27.3555L372.656 28.06ZM371.931 74.228C371.931 76.221 372.467 77.8122 373.786 78.9769C375.064 80.1062 376.979 80.7406 379.516 81.0947L379.717 79.6573C377.266 79.3154 375.7 78.7318 374.746 77.8891C373.832 77.0818 373.382 75.947 373.382 74.228H371.931ZM378.891 80.376V82H380.342V80.376H378.891ZM379.616 81.2744H356.416V82.7256H379.616V81.2744ZM357.142 82V80.376H355.691V82H357.142ZM356.517 81.0947C359.054 80.7406 360.968 80.1062 362.247 78.9769C363.566 77.8122 364.102 76.221 364.102 74.228H362.651C362.651 75.947 362.201 77.0818 361.287 77.8891C360.332 78.7318 358.767 79.3154 356.316 79.6573L356.517 81.0947ZM364.102 74.228V39.776H362.651V74.228H364.102ZM364.102 39.776C364.102 37.8255 363.676 36.2224 362.604 35.0637C361.533 33.9068 359.935 33.3192 357.872 33.1372L357.745 34.5828C359.626 34.7488 360.811 35.2632 361.539 36.0493C362.265 36.8336 362.651 38.0145 362.651 39.776H364.102ZM357.86 33.1362L356.236 33.0202L356.133 34.4678L357.757 34.5838L357.86 33.1362ZM356.91 33.744V32.12H355.459V33.744H356.91ZM356.358 32.8245L372.83 28.7645L372.483 27.3555L356.011 31.4155L356.358 32.8245ZM371.931 28.06V74.228H373.382V28.06H371.931ZM361.434 7.644C361.434 4.13148 364.21 1.40962 368.016 1.40962V-0.0416279C363.471 -0.0416279 359.983 3.26851 359.983 7.644H361.434ZM368.016 1.40962C371.684 1.40962 374.367 4.10863 374.367 7.644H375.818C375.818 3.29136 372.469 -0.0416279 368.016 -0.0416279V1.40962ZM374.367 7.644C374.367 11.1794 371.684 13.8784 368.016 13.8784V15.3296C372.469 15.3296 375.818 11.9966 375.818 7.644H374.367ZM368.016 13.8784C364.21 13.8784 361.434 11.1565 361.434 7.644H359.983C359.983 12.0195 363.471 15.3296 368.016 15.3296V13.8784Z" fill="url(#paint0_radial_1_5645)" fill-opacity="0.6" mask="url(#path-1-outside-1_1_5645)"/>
<defs>
<radialGradient id="paint0_radial_1_5645" cx="0" cy="0" r="1" gradientUnits="userSpaceOnUse" gradientTransform="translate(183.142 89.1058) rotate(-90) scale(25.9547 86.2492)">
<stop stop-color="white"/>
<stop offset="1" stop-color="white" stop-opacity="0.06"/>
</radialGradient>
</defs>
</svg>
